<svg width="113" height="51" viewBox="0 0 113 51" fill="none" xmlns="http://www.w3.org/2000/svg">
<style>
  path{
    fill:#192a3e
  }
</style>
<path d="M35.9864 35.2461L36.8266 34.4103L43.4077 27.8626L41.1673 25.6336L34.5862 32.1813L24.9245 41.7938L18.6934 48.0629L20.9338 50.2222L27.5149 43.6746L35.9864 35.2461Z" fill="white"/>
<path d="M7.9114 37.893V37.6841C7.98141 37.6841 8.05142 37.6841 8.19145 37.6841C11.8321 37.6841 14.7726 34.7585 14.7726 31.1364C14.7726 27.5142 11.8321 24.5887 8.19145 24.5887C7.42131 24.5887 6.65118 24.728 6.02107 24.9369L4.13073 22.29L7.00124 19.4341H13.9325L17.083 16.2996H36.1964L38.9269 19.0162L41.6574 16.2996H46.2082V20.6879L43.4077 23.4742L45.6481 25.7032L49.3587 22.0114V16.3692V13.2347H46.2082H40.3271L38.8569 14.6278L37.3866 13.165H15.6828L12.6022 16.2996H5.671C3.78067 18.1803 1.89033 20.061 0 21.9417C1.1202 23.5438 2.2404 25.1459 3.36059 26.748L5.25093 29.4646C5.53098 29.8129 5.74102 30.1612 6.02107 30.5094C5.95105 30.1612 5.95105 29.6736 6.02107 29.1163C6.09108 28.8377 6.09108 28.6287 6.16109 28.4198C6.65118 28.0715 7.28129 27.7929 7.9114 27.7929C7.98141 27.7929 8.05142 27.7929 8.19145 27.7929C10.0818 27.7929 11.6221 29.3253 11.6221 31.206C11.6221 33.0867 10.0818 34.6192 8.19145 34.6192C8.12144 34.6192 8.05143 34.6192 7.9114 34.6192C7.56134 34.6192 6.86121 34.4799 6.2311 33.9923C5.53098 33.5047 5.18092 32.8081 4.97088 32.3205H4.76084C4.76084 33.7833 4.76084 35.3157 4.76084 36.7785V38.0323V43.8835H6.37113H7.28129H7.9114C9.94176 43.8835 11.9021 43.8835 13.9325 43.8835C14.9827 42.8386 16.0328 41.7938 17.083 40.7489C14.0025 40.7489 10.9919 40.7489 7.9114 40.7489V37.893V37.893Z" fill="white"/>
<path d="M48.3086 30.2309C47.7485 29.3253 46.9783 28.5591 45.9982 28.0715L43.6177 30.4398L39.487 34.5496L37.1066 36.9179L32.2057 41.7938L25.9746 48.0629L28.215 50.2919L39.277 39.2862L41.5874 36.9875L45.9281 32.6688C46.0682 33.0171 46.1382 33.4351 46.1382 33.853C46.1382 34.7585 45.7881 35.5944 45.158 36.2213L41.2373 40.1221C38.5768 42.769 35.9164 45.4159 33.1859 48.1325C33.956 48.8988 34.6561 49.5953 35.4263 50.3615C39.417 46.2518 43.4077 42.2814 47.3984 38.311L47.4684 38.2413C48.6586 37.0572 49.3587 35.4551 49.3587 33.644C49.3587 32.4599 48.9387 31.2061 48.3086 30.2309Z" fill="white"/>
<path d="M18.9033 20.5486C18.9033 22.2204 20.3036 23.5438 21.9139 23.5438C23.5942 23.5438 24.9244 22.1507 24.9244 20.5486H21.9139H18.9033C18.9033 20.5486 18.9033 20.5486 18.9033 20.5486Z" fill="white"/>
<path d="M15.7528 10.0305H37.4566L38.2268 7.45323C38.9269 5.01526 39.697 2.57728 40.3971 0.0696563C38.5068 1.32347 36.6165 2.57728 34.6561 3.8311C35.3562 4.04007 35.8463 4.59732 35.8463 5.36354C35.8463 6.19941 35.1462 6.89598 34.3061 6.89598H29.6152C28.7751 6.89598 28.0049 6.19941 28.0049 5.29388C28.0049 4.45801 28.7051 3.69179 29.6152 3.69179L26.5347 0L23.3841 3.76144C24.2243 3.76144 24.9944 4.45801 24.9944 5.36354C24.9944 6.19941 24.2943 6.96563 23.3841 6.96563H18.9033C18.0632 6.96563 17.3631 6.26907 17.3631 5.43319C17.3631 4.73663 17.8531 4.10972 18.5533 3.90076C16.6629 2.64694 14.7726 1.39313 12.8123 0.139313C13.5124 2.57728 14.2825 5.01526 14.9826 7.52289L15.7528 10.0305Z" fill="white"/>
<path d="M104.458 18.1803C104.458 21.2452 102.498 23.1955 99.4176 23.1955H97.2472V26.6784H93.6066V13.165H99.4876C102.428 13.165 104.458 15.1154 104.458 18.1803ZM100.748 18.1803C100.748 17.1354 100.118 16.5085 99.0675 16.5085H97.1772V19.852H99.0675C100.118 19.852 100.748 19.2251 100.748 18.1803Z" fill="white"/>
<path d="M85.5551 41.6545H81.8444L81.3543 43.8138H77.5037L81.2143 30.3005H86.3252L90.0359 43.8138H86.0452L85.5551 41.6545ZM84.785 38.3806L83.7348 33.853H83.5247L82.4745 38.3806H84.785Z" fill="white"/>
<path d="M93.5366 30.2308H97.1773V43.7441H93.5366V30.2308Z" fill="white"/>
<path d="M109.359 30.2308V37.684H109.289L105.999 30.2308H105.439H101.798V43.7441H105.439V37.3358V36.2909H105.509L108.799 43.7441H109.359H113V30.2308H109.359Z" fill="white"/>
<path d="M83.0346 13.165C78.9739 13.165 75.9634 16.2299 75.9634 19.9217V19.9914C75.9634 23.7528 78.9739 26.748 83.0346 26.748C87.0954 26.748 90.1059 23.6831 90.1059 19.9914V19.9217C90.0359 16.1603 87.0253 13.165 83.0346 13.165ZM82.9646 23.4742C81.0043 23.4742 79.394 21.8721 79.394 19.9217C79.394 17.9713 81.0043 16.3692 82.9646 16.3692C84.925 16.3692 86.5353 17.9713 86.5353 19.9217C86.5353 21.8721 84.995 23.4742 82.9646 23.4742Z" fill="white"/>
<path d="M75.8934 35.455H72.1827C71.1326 36.4999 70.0824 37.5447 69.0322 38.5896H71.1326H72.1827C72.0427 38.7986 71.9027 39.0075 71.7627 39.2165C71.1326 40.0524 70.1524 40.54 69.0322 40.54C67.0718 40.54 65.4616 38.9379 65.4616 36.9875C65.4616 35.0371 67.0718 33.435 69.0322 33.435C70.0124 33.435 70.9225 33.8529 71.5526 34.4799L73.9331 32.1115C72.6728 30.997 70.9925 30.2308 69.0322 30.2308C64.9715 30.2308 61.9609 33.2957 61.9609 36.9875V37.0571C61.9609 40.8186 64.9715 43.8138 69.0322 43.8138C72.4628 43.8138 75.1933 41.5848 75.8934 38.5896C76.0334 38.102 76.1034 37.5447 76.1034 36.9875V36.9178C76.1034 36.4302 76.0334 35.9426 75.8934 35.455Z" fill="white"/>
<path d="M61.9609 13.165V16.5085H65.3915V24.9369C66.0217 25.5638 66.5818 26.1211 67.2119 26.748H69.0322V16.5085H72.3928V13.165H61.9609Z" fill="white"/>
</svg>
